<svg xmlns="http://www.w3.org/2000/svg" viewBox="0 0 181 173.84"><defs><style>.cls-1{fill:#80e093;stroke:#234f2d;stroke-miterlimit:10;}.cls-2{font-size:34.72px;}.cls-2,.cls-5{fill:#234f2d;font-family:NotoSansCJKtc-Regular-B5pc-H, Noto Sans CJK TC;}.cls-3{letter-spacing:-0.01em;}.cls-4{opacity:0.3;}.cls-5{font-size:65.27px;}.cls-6{fill:#fff;}</style></defs><title>HxH資產 30</title><g id="圖層_2" data-name="圖層 2"><g id="圖層_4" data-name="圖層 4"><rect class="cls-1" x="0.5" y="0.5" width="180" height="111" rx="25.1"/><rect class="cls-1" x="126.5" y="57.5" width="54" height="54" rx="25.1"/><text class="cls-2" transform="translate(29.13 57.46)"><tspan class="cls-3">F</tspan><tspan x="18.78" y="0">OOD</tspan></text><g class="cls-4"><text class="cls-5" transform="translate(19.13 105.44)">1</text></g><path class="cls-6" d="M156.55,73.6v-1a1,1,0,1,0-2,0v1.13c-8.57,1.67-7.65,17-10.27,20.38h22.11C164.09,90.62,163.67,74.19,156.55,73.6ZM150.63,89h-2.37s.4-2.37,1.19-6.32c.67-3.34,1.61-4.13,1.89-4.3a.09.09,0,0,1,.06,0h0l-.06,0C150.63,79.06,150.63,89,150.63,89Z"/><path class="cls-6" d="M166.82,95.3h-23.3a1.19,1.19,0,0,0,0,2.37h23.3a1.19,1.19,0,0,0,0-2.37Z"/></g></g></svg>