<svg xmlns="http://www.w3.org/2000/svg" viewBox="0 0 181 172.84"><defs><style>.cls-1{fill:none;stroke:#234f2d;stroke-miterlimit:10;}.cls-2{opacity:0.3;}.cls-3{font-size:65.27px;}.cls-3,.cls-4{fill:#234f2d;font-family:NotoSansCJKtc-Regular-B5pc-H, Noto Sans CJK TC;}.cls-4{font-size:34.72px;}.cls-5{fill:#79997d;}</style></defs><title>HxH資產 28</title><g id="圖層_2" data-name="圖層 2"><g id="圖層_4" data-name="圖層 4"><rect class="cls-1" x="126.5" y="57.5" width="54" height="54" rx="25.1"/><rect class="cls-1" x="0.5" y="0.5" width="180" height="111" rx="25.1"/><g class="cls-2"><text class="cls-3" transform="translate(22.13 104.44)">2</text></g><text class="cls-4" transform="translate(22.13 57.46)">WHERE</text><path class="cls-5" d="M153.21,71.73a12.78,12.78,0,0,0-12.78,12.78c0,7.06,10.77,17,12.78,20.36,2-3.4,12.79-13.3,12.79-20.36A12.79,12.79,0,0,0,153.21,71.73Zm-.35,16.82a4.81,4.81,0,0,1-4.78-5.24c.27-3.43,2.33-5,5.37-5.25,1.54-.1,4.66,1.17,4.9,5.22S154.91,88.43,152.86,88.55Z"/></g></g></svg>