<svg xmlns="http://www.w3.org/2000/svg" viewBox="0 0 181 173.84"><defs><style>.cls-1{fill:#80e093;}.cls-1,.cls-7{stroke:#234f2d;stroke-miterlimit:10;}.cls-2{opacity:0.3;}.cls-3{font-size:65.27px;}.cls-3,.cls-4{fill:#234f2d;font-family:NotoSansCJKtc-Regular-B5pc-H, Noto Sans CJK TC;}.cls-4{font-size:34.72px;}.cls-5{letter-spacing:-0.01em;}.cls-6{fill:#fff;}.cls-7{fill:none;}</style></defs><title>HxH資產 25</title><g id="圖層_2" data-name="圖層 2"><g id="圖層_4" data-name="圖層 4"><rect class="cls-1" x="0.5" y="0.5" width="180" height="111" rx="25.1"/><g class="cls-2"><text class="cls-3" transform="translate(25.13 105.44)">3</text></g><text class="cls-4" transform="translate(22.13 58.46)">IM<tspan class="cls-5" x="38.36" y="0">A</tspan><tspan x="59.05" y="0">GE</tspan></text><path class="cls-6" d="M163.52,73.27v-.1A2.17,2.17,0,0,0,161.35,71H157a2.17,2.17,0,0,0-2.17,2.17H144.56a6.52,6.52,0,0,0-6.5,6.5V90.5a6.53,6.53,0,0,0,6.5,6.5h17.88a6.53,6.53,0,0,0,6.5-6.5V79.67A6.52,6.52,0,0,0,163.52,73.27ZM151.33,91.58a6.23,6.23,0,1,1,6.23-6.23A6.23,6.23,0,0,1,151.33,91.58Z"/><rect class="cls-7" x="126.5" y="57.5" width="54" height="54" rx="25.1"/></g></g></svg>