<svg xmlns="http://www.w3.org/2000/svg" viewBox="0 0 751 66"><defs><style>.cls-1{fill:#234f2d;stroke:#000;stroke-miterlimit:10;}.cls-2{fill:#fff;}</style></defs><title>HxH資產 39</title><g id="圖層_2" data-name="圖層 2"><g id="圖層_2-2" data-name="圖層 2"><rect class="cls-1" x="0.5" y="0.5" width="750" height="65"/><path class="cls-2" d="M31.3,46.32a2,2,0,0,1-1.46-.61,2,2,0,0,1-.62-1.46V21.61a2.12,2.12,0,0,1,2.08-2.08h2.28a2,2,0,0,1,1.48.62,2,2,0,0,1,.6,1.46v7.84a.25.25,0,0,0,.28.28h8.29c.17,0,.25-.1.25-.28V21.61a2.12,2.12,0,0,1,2.07-2.08h2.22a2,2,0,0,1,1.48.62,2,2,0,0,1,.59,1.46V44.25a2.06,2.06,0,0,1-.59,1.46,2,2,0,0,1-1.48.61H46.55a2,2,0,0,1-1.45-.61,2,2,0,0,1-.62-1.46V35.56c0-.16-.08-.24-.25-.24H35.94c-.19,0-.28.08-.28.24v8.69a2,2,0,0,1-.6,1.46,2,2,0,0,1-1.48.61Z"/><path class="cls-2" d="M62.73,46.81a5.53,5.53,0,0,1-4.82-2.16,10.44,10.44,0,0,1-1.55-6.13V27.9a2,2,0,0,1,.6-1.46,2,2,0,0,1,1.48-.62h2.25a2.1,2.1,0,0,1,2.07,2.08v9.81a5.29,5.29,0,0,0,.55,2.86,2,2,0,0,0,1.81.79,3.37,3.37,0,0,0,1.79-.44,5.18,5.18,0,0,0,1.48-1.46.72.72,0,0,0,.17-.45V27.9a2,2,0,0,1,.6-1.46,2,2,0,0,1,1.48-.62h2.25A2.1,2.1,0,0,1,75,27.9V44.25a2.08,2.08,0,0,1-2.07,2.07H71.83a2.39,2.39,0,0,1-1.6-.58,2.35,2.35,0,0,1-.82-1.46l-.11-.7a.1.1,0,0,0-.1-.07.11.11,0,0,0-.11.07A10.71,10.71,0,0,1,66.21,46,7.16,7.16,0,0,1,62.73,46.81Z"/><path class="cls-2" d="M82.17,46.32a2,2,0,0,1-1.48-.61,2,2,0,0,1-.6-1.46V27.9a2,2,0,0,1,.6-1.46,2,2,0,0,1,1.48-.62h1a2.43,2.43,0,0,1,2.43,2.08l.07.42c0,.05,0,.07.09.07a.19.19,0,0,0,.12,0,9.25,9.25,0,0,1,6.5-3,5.51,5.51,0,0,1,4.8,2.18,10.47,10.47,0,0,1,1.57,6.15V44.25a2,2,0,0,1-.6,1.46,2,2,0,0,1-1.48.61H94.47A2,2,0,0,1,93,45.71a2,2,0,0,1-.6-1.46V34.44a5.18,5.18,0,0,0-.56-2.83A2.09,2.09,0,0,0,90,30.82a3.58,3.58,0,0,0-1.67.38,9.49,9.49,0,0,0-1.71,1.27.61.61,0,0,0-.17.42V44.25a2,2,0,0,1-.62,1.46,2,2,0,0,1-1.46.61Z"/><path class="cls-2" d="M111.1,55a16.62,16.62,0,0,1-4.34-.51,6.77,6.77,0,0,1-3.08-1.71,4,4,0,0,1-1.19-3,3.82,3.82,0,0,1,.72-2.25,5.59,5.59,0,0,1,2.13-1.72.26.26,0,0,0,.07-.16.13.13,0,0,0-.07-.12,4.11,4.11,0,0,1-1.2-5.54,5.57,5.57,0,0,1,1.58-1.7.21.21,0,0,0,.07-.15.1.1,0,0,0-.07-.1,6.75,6.75,0,0,1-1.93-2.22,6,6,0,0,1-.77-3,6.91,6.91,0,0,1,1.24-4.13,7.3,7.3,0,0,1,3.15-2.53,10.73,10.73,0,0,1,4.18-.79,10.14,10.14,0,0,1,3,.42,2.09,2.09,0,0,0,.53.07h5.17a2,2,0,0,1,1.47.61,2,2,0,0,1,.6,1.46v.5a2,2,0,0,1-2.07,2.07h-.81a.18.18,0,0,0-.16.09.19.19,0,0,0,0,.16,5.17,5.17,0,0,1,.46,2.25,6.1,6.1,0,0,1-2.27,5.15A9.39,9.39,0,0,1,111.59,40a7.94,7.94,0,0,1-2.14-.32.42.42,0,0,0-.46.14,1.76,1.76,0,0,0-.45,1.23,1.09,1.09,0,0,0,.7,1.06,6.16,6.16,0,0,0,2.32.31h3.23q7.88,0,7.88,5.28A6.15,6.15,0,0,1,119.52,53,15.21,15.21,0,0,1,111.1,55Zm1-4a7,7,0,0,0,3.21-.65,1.9,1.9,0,0,0,1.25-1.63,1.15,1.15,0,0,0-.72-1.16,6,6,0,0,0-2.27-.32h-1.93a14.39,14.39,0,0,1-2.67-.18h-.11a.42.42,0,0,0-.31.11,2.27,2.27,0,0,0-.81,1.65,1.76,1.76,0,0,0,1.17,1.64A7.8,7.8,0,0,0,112.09,51Zm-.5-14.94a2.37,2.37,0,0,0,1.88-.83,3.5,3.5,0,0,0,.73-2.37,3.41,3.41,0,0,0-.73-2.35,2.58,2.58,0,0,0-3.76,0,3.45,3.45,0,0,0-.72,2.34,3.5,3.5,0,0,0,.72,2.37A2.39,2.39,0,0,0,111.59,36.09Z"/><path class="cls-2" d="M128,46.32a2,2,0,0,1-1.48-.61,2,2,0,0,1-.6-1.46V27.9a2,2,0,0,1,.6-1.46,2,2,0,0,1,1.48-.62h1a2.25,2.25,0,0,1,1.55.6,2.31,2.31,0,0,1,.77,1.48l.18,1.44c0,.05,0,.07.09.07a.13.13,0,0,0,.12-.07,8.18,8.18,0,0,1,2.64-3,5.62,5.62,0,0,1,3.12-1h.5a1.62,1.62,0,0,1,1.33.81,2.22,2.22,0,0,1,.32,1.16,2.7,2.7,0,0,1,0,.49l-.28,1.44a2,2,0,0,1-.88,1.27,2.64,2.64,0,0,1-1.51.46h-.24a4.09,4.09,0,0,0-2.4.82,6.16,6.16,0,0,0-1.93,2.59,1.3,1.3,0,0,0-.1.52v9.36a2.1,2.1,0,0,1-2.08,2.07Z"/><path class="cls-2" d="M145.13,54.3c-.35,0-.68,0-1,0a1.63,1.63,0,0,1-1.3-.81,1.94,1.94,0,0,1-.32-1.06,1.72,1.72,0,0,1,.07-.52l.21-.81a1.92,1.92,0,0,1,.88-1.23,4,4,0,0,1,1.62-.6,3.17,3.17,0,0,0,2.74-2.39l.25-.81a.76.76,0,0,0,0-.49l-7-17.69a1.55,1.55,0,0,1-.11-.56,1.38,1.38,0,0,1,.25-.77,1.33,1.33,0,0,1,1.16-.6h2.32a2.82,2.82,0,0,1,1.67.54,2.74,2.74,0,0,1,1,1.43l2.08,6.5q.21.63,1.58,5.73a.11.11,0,0,0,.12.07c.06,0,.09,0,.09-.07q.34-1.68,1.34-5.73l1.79-6.47a2.6,2.6,0,0,1,1-1.46,2.77,2.77,0,0,1,1.66-.54h1.93a1.52,1.52,0,0,1,1.51,1.44,1.5,1.5,0,0,1-.1.53L154.2,46.43a15.9,15.9,0,0,1-3.57,6A7.75,7.75,0,0,1,145.13,54.3Z"/><path class="cls-2" d="M175.12,46.32a2.08,2.08,0,0,1-2.07-2.07V21.61a2,2,0,0,1,.61-1.46,2,2,0,0,1,1.46-.62h2.29a2,2,0,0,1,1.47.62,2,2,0,0,1,.6,1.46v7.84a.25.25,0,0,0,.28.28h8.3c.16,0,.24-.1.24-.28V21.61a2.12,2.12,0,0,1,2.08-2.08h2.21a2,2,0,0,1,1.48.62,2,2,0,0,1,.6,1.46V44.25a2,2,0,0,1-.6,1.46,2,2,0,0,1-1.48.61h-2.21a2.1,2.1,0,0,1-2.08-2.07V35.56a.21.21,0,0,0-.24-.24h-8.3c-.19,0-.28.08-.28.24v8.69a2,2,0,0,1-.6,1.46,2,2,0,0,1-1.47.61Z"/><path class="cls-2" d="M206.55,46.81a5.54,5.54,0,0,1-4.82-2.16,10.44,10.44,0,0,1-1.54-6.13V27.9a2,2,0,0,1,.6-1.46,2,2,0,0,1,1.47-.62h2.25a2.12,2.12,0,0,1,2.08,2.08v9.81a5.41,5.41,0,0,0,.54,2.86,2,2,0,0,0,1.81.79,3.37,3.37,0,0,0,1.79-.44,5,5,0,0,0,1.48-1.46.68.68,0,0,0,.18-.45V27.9a2.06,2.06,0,0,1,.59-1.46,2,2,0,0,1,1.48-.62h2.25a2.12,2.12,0,0,1,2.08,2.08V44.25a2.1,2.1,0,0,1-2.08,2.07h-1.05a2.37,2.37,0,0,1-1.6-.58,2.31,2.31,0,0,1-.83-1.46l-.1-.7a.12.12,0,0,0-.22,0A10.56,10.56,0,0,1,210,46,7.16,7.16,0,0,1,206.55,46.81Z"/><path class="cls-2" d="M226,46.32a2,2,0,0,1-1.47-.61,2,2,0,0,1-.6-1.46V27.9a2,2,0,0,1,.6-1.46,2,2,0,0,1,1.47-.62h1.06a2.44,2.44,0,0,1,1.6.58,2.39,2.39,0,0,1,.82,1.5l.07.42c0,.05,0,.07.09.07a.17.17,0,0,0,.12,0,9.27,9.27,0,0,1,6.51-3,5.54,5.54,0,0,1,4.8,2.18,10.47,10.47,0,0,1,1.56,6.15V44.25a2,2,0,0,1-.6,1.46,2,2,0,0,1-1.47.61H238.3a2,2,0,0,1-1.48-.61,2,2,0,0,1-.6-1.46V34.44a5.18,5.18,0,0,0-.56-2.83,2.07,2.07,0,0,0-1.83-.79,3.58,3.58,0,0,0-1.67.38,9.13,9.13,0,0,0-1.7,1.27.58.58,0,0,0-.18.42V44.25a2.08,2.08,0,0,1-2.07,2.07Z"/><path class="cls-2" d="M255.63,46.81c-2.49,0-4.31-.71-5.49-2.12a9.13,9.13,0,0,1-1.75-6V31.1a.22.22,0,0,0-.25-.25h-.46a2.08,2.08,0,0,1-2.07-2.07v-.6a2.17,2.17,0,0,1,.6-1.53,2.2,2.2,0,0,1,1.47-.72l.81-.07a.32.32,0,0,0,.32-.28l.39-3.1A2.34,2.34,0,0,1,250,21a2.28,2.28,0,0,1,1.55-.58h1.2a2,2,0,0,1,2.07,2.07v3.06c0,.16.08.24.25.24h2.49a2.12,2.12,0,0,1,2.08,2.08v.88a2,2,0,0,1-.62,1.46,2,2,0,0,1-1.46.61h-2.49a.22.22,0,0,0-.25.25v7.56c0,2,.81,3.09,2.43,3.16a3.18,3.18,0,0,1,1.58.47,1.9,1.9,0,0,1,.88,1.18l.14.57a4.81,4.81,0,0,1,0,.52,2.08,2.08,0,0,1-.31,1.09,1.83,1.83,0,0,1-1.3.92A14.57,14.57,0,0,1,255.63,46.81Z"/><path class="cls-2" d="M272.47,46.81A10.22,10.22,0,0,1,265,43.93a10.48,10.48,0,0,1-2.94-7.84,11.9,11.9,0,0,1,.83-4.48,10.05,10.05,0,0,1,2.18-3.41,9.87,9.87,0,0,1,3.09-2.11,8.86,8.86,0,0,1,3.61-.76,8,8,0,0,1,6.53,2.74,11,11,0,0,1,2.25,7.18v.66a1.88,1.88,0,0,1-.73,1.46,2.46,2.46,0,0,1-1.62.58h-9.67a.2.2,0,0,0-.17.09.19.19,0,0,0,0,.19c.59,2.47,2.26,3.7,5,3.7a7.16,7.16,0,0,0,2.46-.43,2.84,2.84,0,0,1,.88-.14,2.92,2.92,0,0,1,.77.11,2,2,0,0,1,1.23,1l.11.21a2.08,2.08,0,0,1,.31,1.06,1.58,1.58,0,0,1-.1.56,1.69,1.69,0,0,1-1,1.23A12.77,12.77,0,0,1,272.47,46.81Zm-4.29-13.18c0,.12.08.17.25.17h6.43c.19,0,.28-.08.28-.24v0a3.77,3.77,0,0,0-.86-2.4,3,3,0,0,0-2.37-.9,3.52,3.52,0,0,0-2.36.84A3.29,3.29,0,0,0,268.18,33.63Z"/><path class="cls-2" d="M286.74,46.32a2,2,0,0,1-1.47-.61,2,2,0,0,1-.6-1.46V27.9a2,2,0,0,1,.6-1.46,2,2,0,0,1,1.47-.62h1.06a2.23,2.23,0,0,1,1.54.6,2.28,2.28,0,0,1,.78,1.48l.17,1.44c0,.05,0,.07.09.07a.11.11,0,0,0,.12-.07,8.36,8.36,0,0,1,2.64-3,5.62,5.62,0,0,1,3.13-1h.49a1.64,1.64,0,0,1,1.34.81,2.22,2.22,0,0,1,.31,1.16,4,4,0,0,1,0,.49l-.28,1.44a2,2,0,0,1-.88,1.27,2.66,2.66,0,0,1-1.51.46h-.25a4.06,4.06,0,0,0-2.39.82,6.08,6.08,0,0,0-1.93,2.59,1.31,1.31,0,0,0-.11.52v9.36A2.08,2.08,0,0,1,289,46.32Z"/></g></g></svg>