<svg xmlns="http://www.w3.org/2000/svg" viewBox="0 0 25.66 26.05"><defs><style>.cls-1{fill:#79997d;}</style></defs><title>HxH資產 18</title><g id="圖層_2" data-name="圖層 2"><g id="圖層_2-2" data-name="圖層 2"><path class="cls-1" d="M14.21,2V1a1,1,0,1,0-2,0V2.12C3.67,3.79,4.59,19.14,2,22.5H24.08C21.75,19,21.33,2.58,14.21,2ZM8.29,17.37H5.92s.4-2.37,1.19-6.32C7.77,7.71,8.72,6.92,9,6.75a.09.09,0,0,1,.06,0h0L9,6.75C8.29,7.45,8.29,17.37,8.29,17.37Z"/><path class="cls-1" d="M24.48,23.69H1.18a1.18,1.18,0,0,0,0,2.36h23.3a1.18,1.18,0,0,0,0-2.36Z"/></g></g></svg>