<svg xmlns="http://www.w3.org/2000/svg" viewBox="0 0 234 99"><defs><style>.cls-1{fill:#80e093;}.cls-2{fill:#fff;}</style></defs><title>HxH資產 40</title><g id="圖層_2" data-name="圖層 2"><g id="圖層_4" data-name="圖層 4"><rect class="cls-1" width="234" height="99" rx="35.07"/><path class="cls-2" d="M63.74,71.23a3.11,3.11,0,0,1-3.07-3.07V34.67a2.91,2.91,0,0,1,.91-2.15,3,3,0,0,1,2.16-.91H74.55a27.06,27.06,0,0,1,6.22.65,15.55,15.55,0,0,1,5,2.1,9.82,9.82,0,0,1,3.49,4,13.94,13.94,0,0,1,1.25,6.11,13.9,13.9,0,0,1-1.28,6.09,11.22,11.22,0,0,1-3.46,4.26,15.7,15.7,0,0,1-5,2.42,21.46,21.46,0,0,1-6,.8H70.6c-.28,0-.41.14-.41.42v9.67a3,3,0,0,1-.89,2.16,2.91,2.91,0,0,1-2.18.91Zm6.45-21.06c0,.28.13.42.41.42h3.74q6.87,0,6.87-6.09a4.65,4.65,0,0,0-1.77-4.13,9.44,9.44,0,0,0-5.36-1.22H70.6c-.28,0-.41.12-.41.36Z"/><path class="cls-2" d="M108.61,72A14.84,14.84,0,0,1,103,70.87a15.25,15.25,0,0,1-4.76-3.07,14.17,14.17,0,0,1-3.3-5,17.84,17.84,0,0,1-1.22-6.68A18.08,18.08,0,0,1,95,49.39a14.16,14.16,0,0,1,3.3-5A15.25,15.25,0,0,1,103,41.28a14.65,14.65,0,0,1,5.59-1.09,14.25,14.25,0,0,1,5.51,1.09,15.28,15.28,0,0,1,4.74,3.07,14.16,14.16,0,0,1,3.3,5,18.08,18.08,0,0,1,1.22,6.71,17.84,17.84,0,0,1-1.22,6.68,14.17,14.17,0,0,1-3.3,5,15.28,15.28,0,0,1-4.74,3.07A14.44,14.44,0,0,1,108.61,72Zm0-7.65a4.16,4.16,0,0,0,3.82-2.15,12,12,0,0,0,1.28-6.06A12.16,12.16,0,0,0,112.43,50a4.15,4.15,0,0,0-3.82-2.18,4.26,4.26,0,0,0-3.9,2.18,11.93,11.93,0,0,0-1.3,6.09,11.76,11.76,0,0,0,1.3,6.06A4.28,4.28,0,0,0,108.61,64.31Z"/><path class="cls-2" d="M138.09,72a18.72,18.72,0,0,1-9.15-2.5,2.56,2.56,0,0,1-1.3-1.92,3.15,3.15,0,0,1,0-.52,3,3,0,0,1,.62-1.82l.63-.89a2.89,2.89,0,0,1,2-1.24,3.36,3.36,0,0,1,.63-.06,3.61,3.61,0,0,1,1.77.47A10.23,10.23,0,0,0,138.3,65c2.39,0,3.59-.8,3.59-2.39a1.56,1.56,0,0,0-.16-.7,1.69,1.69,0,0,0-.54-.65l-.7-.55a4.81,4.81,0,0,0-1-.52l-1.07-.47c-.26-.12-.69-.29-1.3-.52s-1-.39-1.27-.49a23.84,23.84,0,0,1-2.81-1.33,15.92,15.92,0,0,1-2.47-1.74,7.23,7.23,0,0,1-1.92-2.52,7.6,7.6,0,0,1-.71-3.3,8.59,8.59,0,0,1,3.23-7,13,13,0,0,1,8.53-2.65A16.7,16.7,0,0,1,148,42.37a2.54,2.54,0,0,1,1.3,1.87,2.37,2.37,0,0,1,.06.52,2.74,2.74,0,0,1-.63,1.77l-.57.73a3.23,3.23,0,0,1-2,1.25,5.84,5.84,0,0,1-.73.05,3.72,3.72,0,0,1-1.71-.42,8.22,8.22,0,0,0-3.64-1c-2.15,0-3.23.73-3.23,2.19a1.48,1.48,0,0,0,.11.57,1.62,1.62,0,0,0,.31.49q.21.24.42.45a1.88,1.88,0,0,0,.59.39l.71.33a7.76,7.76,0,0,0,.85.37l.91.34,1,.33c.42.14.76.26,1,.37a24.54,24.54,0,0,1,2.89,1.27A15.31,15.31,0,0,1,148.1,56a6.9,6.9,0,0,1,1.93,2.6,9,9,0,0,1,.65,3.51,8.85,8.85,0,0,1-3.3,7.12Q144.07,72,138.09,72Z"/><path class="cls-2" d="M168.1,72c-3.68,0-6.38-1-8.12-3.15s-2.6-5-2.6-8.81V48.71a.32.32,0,0,0-.36-.36h-.68a2.91,2.91,0,0,1-2.15-.91,3,3,0,0,1-.91-2.16V44.4a3.34,3.34,0,0,1,3.06-3.33l1.2-.1a.49.49,0,0,0,.47-.42l.57-4.57a3.5,3.5,0,0,1,1.2-2.16,3.37,3.37,0,0,1,2.28-.86h1.77a3,3,0,0,1,2.16.88A2.92,2.92,0,0,1,166.9,36v4.52a.33.33,0,0,0,.36.37H171A3.11,3.11,0,0,1,174,44v1.3a3,3,0,0,1-.91,2.16,2.91,2.91,0,0,1-2.15.91h-3.7a.32.32,0,0,0-.36.36V59.89q0,4.53,3.59,4.68a4.72,4.72,0,0,1,2.34.71,2.78,2.78,0,0,1,1.3,1.74l.21.83a7.43,7.43,0,0,1,0,.78,3.12,3.12,0,0,1-.47,1.61A2.67,2.67,0,0,1,172,71.59,20.45,20.45,0,0,1,168.1,72Z"/></g></g></svg>