<svg xmlns="http://www.w3.org/2000/svg" viewBox="0 0 181 112"><defs><style>.cls-1{fill:none;stroke:#234f2d;stroke-miterlimit:10;}.cls-2{fill:#79997d;}</style></defs><title>HxH資產 37</title><g id="圖層_2" data-name="圖層 2"><g id="圖層_2-2" data-name="圖層 2"><rect class="cls-1" x="0.5" y="0.5" width="180" height="111" rx="25.1"/><rect class="cls-1" x="126.5" y="56.5" width="54" height="54" rx="25.1"/><path class="cls-2" d="M154.55,70.6v-1a1,1,0,1,0-2,0v1.13c-8.57,1.67-7.65,17-10.27,20.38h22.11C162.09,87.62,161.67,71.19,154.55,70.6ZM148.63,86h-2.37s.4-2.37,1.19-6.32c.67-3.34,1.61-4.13,1.89-4.3a.09.09,0,0,1,.06,0h0l-.06,0C148.63,76.06,148.63,86,148.63,86Z"/><path class="cls-2" d="M164.82,92.3h-23.3a1.19,1.19,0,0,0,0,2.37h23.3a1.19,1.19,0,0,0,0-2.37Z"/></g></g></svg>