<svg xmlns="http://www.w3.org/2000/svg" viewBox="0 0 181 165.82"><defs><style>.cls-1{fill:none;stroke:#234f2d;stroke-miterlimit:10;}.cls-2{fill:#79997d;}</style></defs><title>HxH資產 38</title><g id="圖層_2" data-name="圖層 2"><g id="圖層_2-2" data-name="圖層 2"><rect class="cls-1" x="0.5" y="0.5" width="180" height="164.25" rx="23.66"/><rect class="cls-1" x="126.5" y="115.13" width="54" height="50.19" rx="25.1"/></g><g id="圖層_4" data-name="圖層 4"><path class="cls-2" d="M154.21,125a12.79,12.79,0,0,0-12.78,12.79c0,7.06,10.77,17,12.78,20.36,2-3.4,12.79-13.3,12.79-20.36A12.79,12.79,0,0,0,154.21,125Zm-.35,16.83a4.81,4.81,0,0,1-4.78-5.24c.27-3.43,2.33-5,5.37-5.25,1.54-.1,4.66,1.17,4.9,5.22S155.91,141.75,153.86,141.87Z"/></g></g></svg>